<mxGraphModel><root><mxCell id="0"/><mxCell id="1" parent="0"/><mxCell id="2" value="Start" style="rounded=1;absoluteArcSize=1;arcSize=14;whiteSpace=wrap;strokeWidth=2;" vertex="1" parent="1"><mxGeometry y="68" width="50" height="33" as="geometry"/></mxCell><mxCell id="3" value="Create arrays" style="rounded=1;absoluteArcSize=1;arcSize=14;whiteSpace=wrap;strokeWidth=2;" vertex="1" parent="1"><mxGeometry x="231" y="68" width="111" height="33" as="geometry"/></mxCell><mxCell id="4" value="Input from keyboard" style="shape=hexagon;perimeter=hexagonPerimeter2;fixedSize=1;strokeWidth=2;whiteSpace=wrap;" vertex="1" parent="1"><mxGeometry x="589" width="178" height="33" as="geometry"/></mxCell><mxCell id="5" value="Generate random numbers" style="shape=hexagon;perimeter=hexagonPerimeter2;fixedSize=1;strokeWidth=2;whiteSpace=wrap;" vertex="1" parent="1"><mxGeometry x="567" y="109" width="223" height="33" as="geometry"/></mxCell><mxCell id="6" value="E" style="whiteSpace=wrap;strokeWidth=2;" vertex="1" parent="1"><mxGeometry x="1032" width="24" height="33" as="geometry"/></mxCell><mxCell id="7" value="F" style="whiteSpace=wrap;strokeWidth=2;" vertex="1" parent="1"><mxGeometry x="1032" y="83" width="24" height="33" as="geometry"/></mxCell><mxCell id="8" value="Find the smallest value" style="rounded=1;absoluteArcSize=1;arcSize=14;whiteSpace=wrap;strokeWidth=2;" vertex="1" parent="1"><mxGeometry x="1280" y="83" width="182" height="33" as="geometry"/></mxCell><mxCell id="9" value="Print result" style="rounded=1;absoluteArcSize=1;arcSize=14;whiteSpace=wrap;strokeWidth=2;" vertex="1" parent="1"><mxGeometry x="1653" y="83" width="95" height="33" as="geometry"/></mxCell><mxCell id="10" value="End" style="rounded=1;absoluteArcSize=1;arcSize=14;whiteSpace=wrap;strokeWidth=2;" vertex="1" parent="1"><mxGeometry x="1824" y="83" width="41" height="33" as="geometry"/></mxCell><mxCell id="11" value="Enter array length" style="curved=1;startArrow=none;endArrow=block;exitX=1.0012812805175781;exitY=0.49242430022268585;entryX=-0.0022381619290188625;entryY=0.49242430022268585;" edge="1" parent="1" source="2" target="3"><mxGeometry relative="1" as="geometry"><Array as="points"/></mxGeometry></mxCell><mxCell id="12" value="Choose creation method" style="curved=1;startArrow=none;endArrow=block;exitX=0.8737706527777787;exitY=-0.013636328957297585;entryX=0.0008514918638079353;entryY=0.5060606291799834;" edge="1" parent="1" source="3" target="4"><mxGeometry relative="1" as="geometry"><Array as="points"><mxPoint x="454" y="17"/></Array></mxGeometry></mxCell><mxCell id="13" value="Choose creation method" style="curved=1;startArrow=none;endArrow=block;exitX=1.0017032795124226;exitY=0.9116769384038331;entryX=-0.0016746007808120795;entryY=0.5136364445541844;" edge="1" parent="1" source="3" target="5"><mxGeometry relative="1" as="geometry"><Array as="points"><mxPoint x="454" y="126"/></Array></mxGeometry></mxCell><mxCell id="14" value="Initialize array" style="curved=1;startArrow=none;endArrow=block;exitX=1.0023261938202248;exitY=0.5060606291799834;entryX=-0.01868470509847005;entryY=0.5060606291799834;" edge="1" parent="1" source="4" target="6"><mxGeometry relative="1" as="geometry"><Array as="points"/></mxGeometry></mxCell><mxCell id="15" value="Generate random numbers" style="curved=1;startArrow=none;endArrow=block;exitX=0.9997267445106678;exitY=0.13738623982611342;entryX=-0.01868470509847005;entryY=0.5181818875399503;" edge="1" parent="1" source="5" target="7"><mxGeometry relative="1" as="geometry"><Array as="points"><mxPoint x="911" y="100"/></Array></mxGeometry></mxCell><mxCell id="16" value="" style="curved=1;startArrow=none;endArrow=block;exitX=0.9997267445106678;exitY=0.8898866492822554;entryX=0.13919871317193486;entryY=1.0242425167199336;" edge="1" parent="1" source="5" target="8"><mxGeometry relative="1" as="geometry"><Array as="points"><mxPoint x="911" y="152"/><mxPoint x="1168" y="152"/></Array></mxGeometry></mxCell><mxCell id="17" value="Calculate smallest value" style="curved=1;startArrow=none;endArrow=block;exitX=0.9729819297790527;exitY=0.5060606291799834;entryX=0.2762741975907562;entryY=0.012121258359966856;" edge="1" parent="1" source="6" target="8"><mxGeometry relative="1" as="geometry"><Array as="points"><mxPoint x="1168" y="17"/></Array></mxGeometry></mxCell><mxCell id="18" value="Calculate smallest value" style="curved=1;startArrow=none;endArrow=block;exitX=0.9729819297790527;exitY=0.5181818875399503;entryX=0.0010903536618410885;entryY=0.5181818875399503;" edge="1" parent="1" source="7" target="8"><mxGeometry relative="1" as="geometry"><Array as="points"/></mxGeometry></mxCell><mxCell id="19" value="Print smallest value" style="curved=1;startArrow=none;endArrow=block;exitX=0.9985749171330378;exitY=0.5181818875399503;entryX=0.0007567154733758224;entryY=0.5181818875399503;" edge="1" parent="1" source="8" target="9"><mxGeometry relative="1" as="geometry"><Array as="points"/></mxGeometry></mxCell><mxCell id="20" value="End" style="curved=1;startArrow=none;endArrow=block;exitX=1.0022534420615747;exitY=0.5181818875399503;entryX=0.011014100981921685;entryY=0.5181818875399503;" edge="1" parent="1" source="9" target="10"><mxGeometry relative="1" as="geometry"><Array as="points"/></mxGeometry></mxCell></root></mxGraphModel>